# Blender 4.0.2
# www.blender.org
mtllib Bullet.mtl
o Cube
v -1.000000 -1.000000 1.000000
v -1.000000 1.000000 1.000000
v 1.000000 -1.000000 1.000000
v 1.000000 1.000000 1.000000
v -0.110199 -0.110199 2.579476
v -0.110199 0.110199 2.579476
v 0.110199 0.110199 2.579476
v 0.110199 -0.110199 2.579476
v -0.782967 -0.782967 1.782475
v -0.782967 0.782967 1.782475
v 0.782967 -0.782967 1.782475
v 0.782967 0.782967 1.782475
v -0.831340 -0.831340 -1.399956
v -1.000000 -1.000000 -1.231295
v -0.831340 0.831340 -1.399956
v -1.000000 1.000000 -1.231295
v 0.831340 -0.831340 -1.399956
v 1.000000 -1.000000 -1.231295
v 1.000000 1.000000 -1.231295
v 0.831340 0.831340 -1.399956
vn -0.0000 -0.0000 -1.0000
vn -0.0000 1.0000 -0.0000
vn -0.7642 -0.0000 0.6450
vn -1.0000 -0.0000 -0.0000
vn 1.0000 -0.0000 -0.0000
vn -0.0000 -0.0000 1.0000
vn -0.0000 -0.7642 0.6450
vn -0.0000 0.7642 0.6450
vn 0.7642 -0.0000 0.6450
vn 0.9636 -0.0000 0.2673
vn -0.0000 0.9636 0.2673
vn -0.0000 -0.9636 0.2673
vn -0.9636 -0.0000 0.2673
vn -0.7071 -0.0000 -0.7071
vn -0.0000 -0.7071 -0.7071
vn -0.0000 0.7071 -0.7071
vn 0.7071 -0.0000 -0.7071
vn -0.0000 -1.0000 -0.0000
vt 0.396083 0.271083
vt 0.603917 0.271083
vt 0.603917 0.478918
vt 0.396083 0.478917
vt 0.625000 0.517569
vt 0.875000 0.517569
vt 0.875000 0.750000
vt 0.625000 0.750000
vt 0.625000 0.000000
vt 0.375000 0.000000
vt 0.625000 0.232431
vt 0.375000 0.232431
vt 0.375000 0.517569
vt 0.375000 0.750000
vt 0.625000 1.000000
vt 0.375000 1.000000
vt 0.125000 0.750000
vt 0.625000 0.750000
vt 0.375000 0.500000
vt 0.375000 0.250000
vt 0.625000 0.250000
vt 0.625000 0.500000
vt 0.125000 0.517569
s 0
g Cube_Material.001
usemtl Material.001
f 13/1/1 15/2/1 20/3/1 17/4/1
f 19/5/2 16/6/2 2/7/2 4/8/2
f 10/9/3 9/10/3 5/10/3 6/9/3
f 1/10/4 2/9/4 16/11/4 14/12/4
f 18/13/5 19/5/5 4/8/5 3/14/5
f 8/14/6 7/8/6 6/15/6 5/16/6
f 9/17/7 11/14/7 8/14/7 5/17/7
f 12/18/8 10/7/8 6/7/8 7/8/8
f 11/14/9 12/18/9 7/8/9 8/14/9
f 3/14/10 4/8/10 12/18/10 11/14/10
f 4/8/11 2/7/11 10/7/11 12/18/11
f 1/17/12 3/14/12 11/14/12 9/17/12
f 2/9/13 1/10/13 9/10/13 10/9/13
f 15/2/14 13/1/14 14/12/14 16/11/14
f 18/19/15 14/20/15 13/1/15 17/4/15
f 16/21/16 19/22/16 20/3/16 15/2/16
f 19/5/17 18/13/17 17/4/17 20/3/17
f 14/23/18 18/13/18 3/14/18 1/17/18
